<svg id="svg" version="1.1" xmlns="http://www.w3.org/2000/svg" xmlns:xlink="http://www.w3.org/1999/xlink" width="400" height="266.6666666666667" viewBox="0, 0, 400,266.6666666666667"><g id="svgg"><path id="path0" d="M197.409 84.237 C 197.381 84.610,197.504 84.705,197.885 84.606 C 198.533 84.436,198.564 83.733,197.923 83.733 C 197.647 83.733,197.431 83.945,197.409 84.237 M205.867 84.267 C 205.867 84.601,206.044 84.800,206.343 84.800 C 206.629 84.800,206.836 84.586,206.860 84.267 C 206.887 83.903,206.736 83.733,206.383 83.733 C 206.044 83.733,205.867 83.917,205.867 84.267 M196.267 85.067 C 196.267 85.213,196.394 85.333,196.549 85.333 C 196.704 85.333,196.741 85.483,196.631 85.667 C 196.493 85.896,196.571 85.886,196.879 85.636 C 197.126 85.436,197.262 85.166,197.181 85.036 C 196.981 84.713,196.267 84.737,196.267 85.067 M207.822 85.181 C 207.822 85.390,208.042 85.619,208.311 85.689 C 208.659 85.780,208.800 85.670,208.800 85.308 C 208.800 84.993,208.614 84.800,208.311 84.800 C 208.042 84.800,207.822 84.971,207.822 85.181 M194.133 86.433 C 194.133 86.876,194.211 86.934,194.491 86.702 C 194.688 86.538,194.908 86.464,194.980 86.536 C 195.052 86.608,195.111 86.487,195.111 86.267 C 195.111 86.047,194.891 85.867,194.622 85.867 C 194.302 85.867,194.133 86.062,194.133 86.433 M209.917 86.333 C 209.967 86.590,210.126 86.802,210.270 86.804 C 210.415 86.806,210.666 86.893,210.828 86.996 C 211.025 87.121,211.081 86.964,210.997 86.525 C 210.914 86.092,210.692 85.867,210.349 85.867 C 209.996 85.867,209.857 86.017,209.917 86.333 M213.136 89.547 C 213.186 90.216,214.133 90.251,214.133 89.583 C 214.133 89.250,213.950 89.067,213.617 89.067 C 213.283 89.067,213.113 89.237,213.136 89.547 M23.886 90.552 C 23.408 91.030,23.346 91.809,23.727 92.522 C 23.948 92.934,24.349 93.013,26.327 93.032 C 28.333 93.052,28.600 93.004,28.200 92.698 C 27.714 92.326,27.566 91.335,27.961 91.090 C 28.087 91.013,28.149 91.276,28.100 91.675 C 28.010 92.397,28.011 92.398,28.230 91.733 C 28.517 90.862,28.353 90.606,27.644 90.817 C 27.073 90.987,27.073 90.984,27.600 90.569 C 28.099 90.178,28.009 90.150,26.219 90.142 C 24.826 90.136,24.191 90.247,23.886 90.552 M190.133 90.533 C 190.133 90.756,189.896 90.933,189.600 90.933 C 189.205 90.933,189.067 91.111,189.067 91.620 C 189.067 92.495,189.959 92.417,190.085 91.531 C 190.132 91.202,190.342 90.933,190.552 90.933 C 190.762 90.933,190.933 90.753,190.933 90.533 C 190.933 90.313,190.753 90.133,190.533 90.133 C 190.313 90.133,190.133 90.313,190.133 90.533 M214.235 91.321 C 214.045 91.815,214.322 92.267,214.816 92.267 C 215.048 92.267,215.200 92.003,215.200 91.600 C 215.200 90.867,214.488 90.661,214.235 91.321 M20.412 91.696 C 20.325 91.968,20.330 92.388,20.422 92.629 C 20.604 93.101,21.333 93.238,21.333 92.800 C 21.333 92.653,21.189 92.563,21.012 92.600 C 20.622 92.681,20.539 91.994,20.883 91.533 C 21.042 91.320,21.031 91.200,20.851 91.200 C 20.696 91.200,20.498 91.423,20.412 91.696 M21.333 91.543 C 21.113 91.722,20.902 92.023,20.863 92.212 C 20.764 92.695,21.752 92.151,21.960 91.607 C 22.147 91.121,21.884 91.094,21.333 91.543 M29.817 91.667 C 29.584 92.642,29.862 93.014,30.805 92.987 C 31.734 92.961,31.887 92.618,31.351 91.759 C 31.181 91.487,31.213 91.443,31.467 91.600 C 31.698 91.743,31.751 91.712,31.625 91.508 C 31.318 91.010,29.946 91.130,29.817 91.667 M21.902 92.166 C 21.634 92.469,21.616 92.656,21.835 92.875 C 21.999 93.039,22.142 93.119,22.153 93.053 C 22.164 92.987,22.223 92.663,22.285 92.333 C 22.416 91.631,22.386 91.618,21.902 92.166 M215.374 92.658 C 215.291 92.873,215.338 93.121,215.478 93.207 C 215.619 93.294,215.742 93.148,215.752 92.882 C 215.769 92.452,215.795 92.457,216.000 92.933 C 216.219 93.442,216.230 93.439,216.248 92.867 C 216.269 92.196,215.611 92.039,215.374 92.658 M16.377 93.637 C 16.222 93.888,16.574 93.956,17.600 93.870 C 17.967 93.840,18.189 93.894,18.094 93.991 C 17.999 94.088,17.562 94.178,17.123 94.190 C 15.752 94.229,16.211 95.043,17.664 95.149 C 18.998 95.246,19.451 94.897,18.890 94.204 C 18.590 93.835,18.592 93.800,18.901 93.986 C 19.156 94.139,19.231 94.093,19.145 93.837 C 19.006 93.422,16.617 93.249,16.377 93.637 M33.867 94.327 C 33.867 95.210,33.891 95.230,34.867 95.149 C 36.111 95.046,36.550 93.724,35.417 93.493 C 34.131 93.231,33.867 93.374,33.867 94.327 M188.000 94.647 C 188.000 95.029,188.171 95.200,188.553 95.200 C 188.935 95.200,189.078 95.056,189.016 94.736 C 188.883 94.041,188.000 93.964,188.000 94.647 M194.578 95.378 C 194.480 95.476,194.400 96.196,194.400 96.978 L 194.400 98.400 195.445 98.400 C 197.134 98.400,197.333 98.231,197.333 96.803 C 197.333 95.707,197.249 95.506,196.733 95.368 C 195.930 95.153,194.798 95.158,194.578 95.378 M207.133 95.488 C 206.657 95.765,206.539 96.696,206.838 97.813 C 206.986 98.365,207.136 98.418,208.368 98.346 L 209.733 98.267 209.816 96.959 C 209.923 95.282,208.668 94.594,207.133 95.488 M13.533 96.472 C 13.001 96.587,12.856 98.133,13.378 98.133 C 13.549 98.133,13.598 98.223,13.487 98.333 C 13.376 98.443,13.037 98.533,12.733 98.533 C 12.429 98.533,12.124 98.700,12.056 98.904 C 11.973 99.150,12.054 99.210,12.299 99.084 C 12.501 98.979,12.427 99.090,12.133 99.330 C 11.658 99.719,11.645 99.801,12.016 100.083 C 12.537 100.480,12.297 101.695,11.673 101.815 C 11.355 101.876,11.207 101.659,11.127 101.016 C 11.063 100.490,11.003 100.780,10.980 101.733 C 10.908 104.657,12.242 105.854,12.911 103.467 C 13.055 102.953,13.314 102.413,13.487 102.267 C 13.888 101.927,14.201 99.540,13.872 99.336 C 13.470 99.088,13.879 98.400,14.429 98.400 C 14.824 98.400,14.933 98.205,14.933 97.498 C 14.933 96.565,14.519 96.261,13.533 96.472 M37.533 96.472 C 37.277 96.527,37.067 96.691,37.067 96.835 C 37.067 96.980,37.217 97.008,37.400 96.898 C 37.630 96.760,37.620 96.837,37.370 97.145 C 36.833 97.808,37.177 98.369,38.106 98.342 C 38.802 98.323,38.874 98.254,38.645 97.826 C 38.467 97.494,38.471 97.333,38.657 97.333 C 38.809 97.333,38.933 97.167,38.933 96.964 C 38.933 96.556,38.255 96.318,37.533 96.472 M216.267 98.525 C 216.267 98.763,216.423 98.857,216.665 98.764 C 216.884 98.680,216.997 98.503,216.916 98.372 C 216.683 97.996,216.267 98.094,216.267 98.525 M244.533 98.660 C 244.533 98.828,244.683 98.889,244.867 98.796 C 245.050 98.703,244.990 98.799,244.733 99.010 C 244.039 99.579,244.059 102.550,244.759 102.733 C 245.371 102.893,245.478 98.670,244.867 98.467 C 244.683 98.406,244.533 98.493,244.533 98.660 M188.000 102.153 C 188.000 102.778,188.805 102.786,189.012 102.163 C 189.087 101.938,189.017 101.866,188.835 101.979 C 188.669 102.081,188.533 102.038,188.533 101.882 C 188.533 101.727,188.413 101.600,188.267 101.600 C 188.120 101.600,188.000 101.849,188.000 102.153 M40.733 102.843 C 40.917 102.917,41.067 103.101,41.067 103.251 C 41.067 103.401,40.917 103.466,40.733 103.396 C 40.524 103.316,40.400 103.504,40.400 103.901 C 40.400 104.597,40.764 104.715,41.319 104.200 C 41.606 103.933,41.641 103.933,41.490 104.200 C 41.387 104.383,41.427 104.533,41.579 104.533 C 41.922 104.533,42.247 103.334,42.009 102.948 C 41.914 102.793,41.512 102.676,41.118 102.688 C 40.723 102.699,40.550 102.769,40.733 102.843 M215.244 103.570 C 215.298 104.367,215.361 104.437,215.786 104.172 C 216.467 103.747,216.423 102.667,215.725 102.667 C 215.275 102.667,215.194 102.820,215.244 103.570 M18.254 104.356 C 17.895 105.785,18.196 106.527,19.170 106.620 C 20.908 106.786,21.362 106.512,21.292 105.342 C 21.259 104.768,21.134 104.358,21.015 104.432 C 20.897 104.505,20.800 104.400,20.800 104.199 C 20.800 103.459,18.442 103.605,18.254 104.356 M214.752 105.170 C 214.849 105.423,214.818 105.560,214.682 105.476 C 214.547 105.393,214.361 105.447,214.269 105.596 C 214.177 105.746,214.347 105.867,214.651 105.867 C 215.241 105.867,215.400 105.222,214.888 104.905 C 214.676 104.775,214.632 104.860,214.752 105.170 M243.383 105.506 C 242.948 105.940,243.187 107.775,243.667 107.683 C 244.016 107.615,244.133 107.331,244.133 106.552 C 244.133 105.571,243.793 105.096,243.383 105.506 M190.133 106.400 C 190.133 106.802,190.273 106.946,190.600 106.883 C 190.857 106.833,191.067 106.616,191.067 106.400 C 191.067 106.184,190.857 105.967,190.600 105.917 C 190.273 105.854,190.133 105.998,190.133 106.400 M339.222 108.653 C 339.198 111.617,339.492 112.291,340.558 111.720 C 341.086 111.437,341.211 106.403,340.690 106.396 C 340.531 106.394,340.580 106.276,340.800 106.133 C 341.098 105.940,340.952 105.874,340.222 105.871 L 339.244 105.867 339.222 108.653 M194.300 109.633 C 194.044 110.916,194.057 110.933,195.308 110.933 C 196.352 110.933,196.468 110.993,196.344 111.467 C 196.240 111.865,196.336 112.000,196.723 112.000 C 197.580 112.000,197.601 109.200,196.746 108.971 C 195.204 108.558,194.476 108.755,194.300 109.633 M207.179 109.297 C 206.640 109.733,206.602 109.867,206.908 110.236 C 207.105 110.473,207.161 110.669,207.033 110.671 C 206.905 110.673,206.980 110.791,207.200 110.933 C 207.467 111.106,207.489 111.193,207.267 111.196 C 207.083 111.198,206.933 111.380,206.933 111.600 C 206.933 111.849,207.185 112.000,207.600 112.000 C 208.015 112.000,208.267 111.849,208.267 111.600 C 208.267 111.380,208.364 111.200,208.483 111.200 C 208.602 111.200,208.962 110.955,209.283 110.656 C 209.751 110.221,209.867 110.194,209.867 110.523 C 209.867 110.787,210.114 110.933,210.562 110.933 C 211.086 110.933,211.217 110.830,211.095 110.512 C 211.006 110.280,210.933 110.040,210.933 109.978 C 210.933 109.917,210.701 109.867,210.418 109.867 C 210.135 109.867,209.834 109.651,209.751 109.388 C 209.533 108.704,207.979 108.649,207.179 109.297 M11.104 110.533 C 10.836 111.231,11.223 111.733,12.029 111.733 C 12.708 111.733,12.800 111.638,12.800 110.933 C 12.800 110.038,11.419 109.712,11.104 110.533 M161.929 112.267 C 161.929 112.780,161.983 112.990,162.050 112.733 C 162.118 112.477,162.118 112.057,162.050 111.800 C 161.983 111.543,161.929 111.753,161.929 112.267 M11.076 112.213 C 10.234 113.055,11.433 114.192,12.910 113.952 C 14.597 113.678,14.238 112.146,12.476 112.102 C 11.784 112.084,11.154 112.134,11.076 112.213 M200.319 112.181 C 200.581 112.250,200.709 112.461,200.623 112.683 C 200.503 112.996,200.849 113.067,202.496 113.067 C 204.132 113.067,204.489 112.995,204.371 112.688 C 204.277 112.442,204.444 112.267,204.846 112.191 C 205.187 112.126,204.207 112.070,202.667 112.067 C 201.127 112.064,200.070 112.115,200.319 112.181 M338.674 112.926 C 338.161 113.472,338.113 113.654,338.394 113.992 C 338.643 114.293,338.649 114.400,338.417 114.400 C 338.244 114.400,338.184 114.533,338.284 114.695 C 338.412 114.902,338.532 114.885,338.685 114.637 C 338.805 114.443,338.797 114.157,338.667 114.000 C 338.529 113.834,338.534 113.552,338.678 113.324 C 338.814 113.109,338.942 113.023,338.963 113.133 C 338.983 113.243,339.030 113.453,339.067 113.600 C 339.103 113.747,339.148 114.107,339.167 114.400 C 339.230 115.415,341.067 114.984,341.067 113.954 C 341.067 112.278,339.796 111.731,338.674 112.926 M38.411 113.454 C 37.724 114.281,38.184 114.786,39.669 114.837 C 40.438 114.863,41.067 114.768,41.067 114.626 C 41.067 114.485,40.968 114.429,40.848 114.504 C 40.602 114.655,39.733 113.740,39.733 113.330 C 39.733 112.927,38.773 113.017,38.411 113.454 M40.000 113.301 C 40.000 113.637,40.783 114.239,40.973 114.050 C 41.246 113.776,40.838 113.067,40.408 113.067 C 40.184 113.067,40.000 113.172,40.000 113.301 M39.337 113.551 C 39.266 113.622,39.416 113.839,39.671 114.032 C 40.133 114.383,40.093 114.415,39.038 114.529 C 38.589 114.578,38.257 113.690,38.633 113.444 C 38.777 113.350,39.438 113.451,39.337 113.551 M37.067 116.069 C 37.067 116.896,37.127 116.956,37.991 116.979 C 38.863 117.002,38.913 116.956,38.883 116.153 C 38.832 114.814,37.067 114.732,37.067 116.069 M34.667 118.392 C 34.667 118.534,34.508 118.589,34.313 118.514 C 34.065 118.419,33.975 118.601,34.011 119.123 C 34.094 120.339,34.374 120.754,35.017 120.614 C 35.488 120.511,35.523 120.542,35.200 120.773 C 34.635 121.177,34.193 121.134,34.047 120.661 C 33.958 120.377,33.933 120.397,33.963 120.728 C 34.023 121.405,35.350 121.516,35.694 120.873 C 36.137 120.047,35.944 118.527,35.403 118.570 C 35.148 118.590,35.005 118.500,35.085 118.370 C 35.166 118.240,35.104 118.133,34.949 118.133 C 34.794 118.133,34.667 118.250,34.667 118.392 M16.444 118.578 C 15.808 119.215,16.546 121.067,17.436 121.067 C 18.515 121.067,19.714 121.606,19.555 122.020 C 19.354 122.546,19.978 122.496,20.641 121.933 C 21.027 121.605,21.096 121.590,20.872 121.882 C 20.593 122.245,20.716 122.296,21.850 122.282 C 22.563 122.274,23.092 122.177,23.024 122.067 C 22.957 121.957,23.029 121.867,23.184 121.867 C 23.560 121.867,23.548 120.615,23.170 120.382 C 23.007 120.281,22.767 120.364,22.637 120.566 C 22.444 120.865,22.358 120.869,22.176 120.586 C 22.052 120.395,21.788 120.275,21.588 120.319 C 21.388 120.364,21.219 120.230,21.212 120.022 C 21.205 119.814,21.020 119.595,20.800 119.535 C 20.444 119.438,20.444 119.457,20.800 119.709 C 21.020 119.865,21.096 119.994,20.969 119.996 C 20.842 119.998,20.940 120.330,21.186 120.733 L 21.634 121.467 21.005 120.782 C 20.659 120.405,20.228 120.126,20.048 120.162 C 19.868 120.197,19.843 120.166,19.993 120.091 C 20.144 120.017,20.267 119.838,20.267 119.695 C 20.267 119.552,20.156 119.503,20.021 119.587 C 19.886 119.670,19.539 119.437,19.250 119.069 C 18.735 118.415,16.925 118.098,16.444 118.578 M18.859 119.135 C 19.313 119.530,19.341 119.658,19.033 119.946 C 18.748 120.212,18.667 120.215,18.667 119.957 C 18.667 119.700,18.596 119.698,18.347 119.947 C 17.951 120.342,17.067 120.368,17.067 119.984 C 17.067 119.829,16.947 119.776,16.800 119.867 C 16.458 120.078,16.461 119.833,16.809 119.182 C 17.154 118.539,18.145 118.517,18.859 119.135 M31.242 119.798 C 31.060 119.980,30.466 120.253,29.922 120.405 C 28.079 120.919,28.513 122.382,30.513 122.396 C 31.003 122.400,31.001 122.373,30.459 121.796 C 30.056 121.367,29.964 121.077,30.142 120.796 C 30.343 120.477,30.393 120.510,30.396 120.967 C 30.401 121.610,31.004 122.230,31.334 121.931 C 31.454 121.822,31.466 121.883,31.360 122.067 C 31.070 122.571,32.934 122.494,33.448 121.981 C 33.881 121.547,33.790 120.468,33.264 119.800 C 32.926 119.371,31.671 119.369,31.242 119.798 M155.823 137.485 C 155.599 138.067,156.104 138.488,156.773 138.275 C 157.603 138.012,157.513 137.067,156.658 137.067 C 156.287 137.067,155.911 137.255,155.823 137.485 M249.672 139.752 C 249.651 140.035,249.746 140.267,249.883 140.267 C 250.187 140.267,250.218 139.550,249.922 139.368 C 249.806 139.296,249.693 139.469,249.672 139.752 M153.905 141.304 C 153.404 141.622,153.761 142.635,154.343 142.550 C 154.624 142.508,154.800 142.244,154.800 141.863 C 154.800 141.174,154.453 140.958,153.905 141.304 M250.559 142.329 C 250.177 142.712,250.425 143.467,250.933 143.467 C 251.279 143.467,251.467 143.289,251.467 142.962 C 251.467 142.455,250.858 142.031,250.559 142.329 M252.533 148.011 C 252.533 148.775,253.601 150.133,254.201 150.133 C 254.590 150.133,254.683 149.970,254.618 149.400 C 254.569 148.978,254.389 148.696,254.193 148.736 C 254.005 148.774,253.774 148.594,253.679 148.336 C 253.337 147.409,252.533 147.181,252.533 148.011 M150.598 149.800 C 150.343 150.312,150.588 150.808,151.133 150.885 C 151.622 150.955,151.733 150.843,151.733 150.285 C 151.733 149.630,150.868 149.260,150.598 149.800 M259.773 167.000 C 259.513 167.260,255.346 167.333,240.750 167.333 C 219.851 167.333,220.158 167.305,222.390 169.023 C 222.897 169.414,223.740 170.153,224.263 170.667 C 224.786 171.180,226.346 172.560,227.730 173.733 C 229.114 174.907,230.730 176.303,231.323 176.837 C 231.915 177.371,233.247 178.571,234.283 179.504 C 235.319 180.437,237.288 182.160,238.659 183.333 C 241.855 186.068,242.400 186.660,242.400 187.400 L 242.400 188.005 255.267 187.936 L 268.133 187.867 268.210 185.400 C 268.282 183.071,268.256 182.933,267.743 182.933 C 267.269 182.933,267.200 182.764,267.200 181.602 C 267.200 180.560,267.084 180.199,266.667 179.938 C 266.306 179.713,266.133 179.316,266.133 178.711 C 266.133 178.041,266.000 177.782,265.600 177.677 C 265.143 177.558,265.067 177.314,265.067 175.969 C 265.067 174.578,265.006 174.400,264.533 174.400 C 264.071 174.400,264.000 174.222,264.000 173.067 C 264.000 171.911,263.929 171.733,263.467 171.733 C 263.012 171.733,262.933 171.556,262.933 170.533 C 262.933 169.511,262.854 169.333,262.400 169.333 C 261.985 169.333,261.867 169.156,261.867 168.533 C 261.867 167.198,260.544 166.229,259.773 167.000 M143.277 167.733 C 143.200 168.029,142.914 168.267,142.636 168.267 C 142.201 168.267,142.133 168.477,142.133 169.836 C 142.133 171.180,142.057 171.424,141.600 171.544 C 141.205 171.647,141.067 171.908,141.067 172.546 C 141.067 173.020,140.881 173.543,140.655 173.709 C 140.233 174.018,140.051 174.844,140.018 176.600 C 140.005 177.303,139.881 177.600,139.600 177.600 C 139.380 177.600,139.200 177.826,139.200 178.102 C 139.200 178.380,138.962 178.667,138.667 178.744 C 138.214 178.862,138.133 179.108,138.133 180.375 C 138.133 181.689,138.070 181.867,137.600 181.867 C 137.156 181.867,137.067 182.044,137.067 182.933 C 137.067 183.830,136.980 184.000,136.522 184.000 C 136.016 184.000,135.982 184.138,136.055 185.933 L 136.133 187.867 144.964 187.943 L 153.794 188.018 153.930 187.001 C 154.006 186.441,154.313 185.443,154.614 184.782 C 154.915 184.122,155.247 183.226,155.352 182.791 C 155.456 182.356,155.825 181.510,156.170 180.912 C 156.515 180.314,157.029 179.174,157.313 178.379 C 157.596 177.584,158.089 176.273,158.408 175.467 C 158.728 174.660,159.154 173.556,159.356 173.013 C 159.557 172.470,160.096 171.234,160.553 170.266 C 161.114 169.079,161.331 168.294,161.220 167.853 L 161.057 167.200 152.237 167.200 C 143.641 167.200,143.413 167.214,143.277 167.733 " stroke="none" fill="#a8e8f5" fill-rule="evenodd"></path><path id="path1" d="M197.847 55.867 C 197.836 55.867,197.786 56.077,197.737 56.333 C 197.660 56.731,197.860 56.800,199.090 56.800 C 200.363 56.800,200.533 56.736,200.533 56.258 C 200.533 55.776,200.387 55.725,199.201 55.792 C 198.468 55.833,197.859 55.867,197.847 55.867 M204.800 56.267 C 204.800 56.735,204.978 56.800,206.267 56.800 C 207.770 56.800,208.132 56.499,207.218 56.009 C 206.272 55.503,204.800 55.660,204.800 56.267 M190.522 57.351 C 190.256 57.782,190.526 57.913,191.486 57.819 C 192.306 57.738,192.327 57.710,191.860 57.333 C 191.419 56.978,191.389 56.978,191.588 57.333 C 191.770 57.659,191.745 57.671,191.452 57.400 C 191.013 56.992,190.753 56.978,190.522 57.351 M188.267 58.400 C 188.267 58.750,188.444 58.933,188.784 58.933 C 189.450 58.933,189.778 58.410,189.301 58.108 C 188.687 57.719,188.267 57.838,188.267 58.400 M177.776 63.398 C 177.698 63.523,177.735 63.787,177.857 63.985 C 178.128 64.423,179.024 64.140,178.867 63.667 C 178.733 63.266,177.973 63.079,177.776 63.398 M174.819 66.326 C 174.249 66.472,173.558 67.069,173.745 67.256 C 174.088 67.599,175.467 67.103,175.467 66.636 C 175.467 66.360,175.437 66.147,175.400 66.164 C 175.363 66.181,175.102 66.254,174.819 66.326 M172.131 68.804 C 172.039 68.953,171.833 68.995,171.674 68.896 C 171.501 68.790,171.461 68.842,171.575 69.025 C 171.848 69.468,172.444 69.405,172.444 68.933 C 172.444 68.465,172.362 68.431,172.131 68.804 M233.867 70.942 C 233.867 71.231,234.047 71.467,234.267 71.467 C 234.487 71.467,234.667 71.300,234.667 71.095 C 234.667 70.891,234.487 70.655,234.267 70.570 C 233.995 70.466,233.867 70.585,233.867 70.942 M163.318 82.248 C 162.824 82.611,162.822 82.637,163.285 82.816 C 163.864 83.041,164.327 82.662,164.040 82.198 C 163.880 81.939,163.723 81.949,163.318 82.248 M199.491 82.710 C 197.817 83.329,198.912 83.733,202.267 83.733 C 205.422 83.733,205.600 83.705,205.600 83.200 C 205.600 82.907,205.450 82.652,205.267 82.635 C 203.795 82.494,199.940 82.544,199.491 82.710 M196.867 83.643 C 196.683 83.717,196.533 83.935,196.533 84.127 C 196.533 84.538,195.950 84.800,195.036 84.800 C 194.677 84.800,194.318 84.969,194.239 85.176 C 194.160 85.383,193.803 85.625,193.447 85.714 C 193.091 85.804,192.800 86.058,192.800 86.280 C 192.800 86.502,192.620 86.752,192.400 86.837 C 192.180 86.921,192.000 87.144,192.000 87.331 C 192.000 87.518,191.760 87.734,191.467 87.811 C 191.173 87.887,190.933 88.141,190.933 88.375 C 190.933 88.622,190.710 88.800,190.400 88.800 C 190.107 88.800,189.867 88.942,189.867 89.116 C 189.867 89.290,189.607 89.709,189.289 90.047 C 188.961 90.397,188.711 91.009,188.711 91.464 C 188.711 91.917,188.570 92.267,188.387 92.267 C 188.003 92.267,187.730 93.149,187.768 94.267 C 187.785 94.760,187.844 94.878,187.922 94.575 C 188.009 94.238,188.214 94.127,188.577 94.222 C 189.037 94.342,189.099 94.235,189.060 93.380 C 188.949 90.948,188.984 90.852,189.933 91.015 C 190.410 91.097,190.650 91.102,190.467 91.026 C 190.283 90.951,190.133 90.719,190.133 90.511 C 190.133 90.045,190.839 90.009,191.023 90.467 C 191.097 90.650,191.167 90.431,191.179 89.980 C 191.194 89.383,191.454 88.947,192.133 88.381 C 192.647 87.953,193.067 87.452,193.067 87.268 C 193.067 87.084,193.307 86.933,193.600 86.933 C 193.956 86.933,194.133 86.756,194.133 86.400 C 194.133 85.948,194.311 85.867,195.292 85.867 C 196.520 85.867,197.209 85.382,197.376 84.400 C 197.426 84.107,197.647 83.785,197.867 83.685 C 198.351 83.466,197.405 83.426,196.867 83.643 M206.847 84.107 C 206.644 84.637,206.893 84.800,207.911 84.800 C 208.622 84.800,208.800 84.907,208.800 85.333 C 208.800 85.775,208.978 85.867,209.833 85.867 C 210.758 85.867,210.883 85.947,211.020 86.633 C 211.222 87.643,212.665 89.067,213.487 89.067 C 214.061 89.067,214.133 89.184,214.133 90.108 C 214.133 91.019,214.201 91.132,214.667 91.011 C 215.130 90.889,215.203 91.007,215.221 91.902 C 215.233 92.469,215.303 92.783,215.377 92.600 C 215.893 91.321,216.267 92.401,216.267 95.171 C 216.267 97.692,216.328 98.100,216.733 98.256 C 217.178 98.427,217.178 98.448,216.733 98.698 C 216.340 98.919,216.267 99.357,216.267 101.480 C 216.267 103.942,216.189 104.165,215.380 104.025 C 215.259 104.004,215.231 104.101,215.318 104.242 C 215.404 104.382,215.365 104.565,215.229 104.649 C 215.094 104.732,215.046 105.040,215.123 105.334 C 215.230 105.743,215.131 105.867,214.698 105.867 C 214.311 105.867,214.133 106.035,214.133 106.400 C 214.133 106.756,213.956 106.933,213.600 106.933 C 213.307 106.933,213.081 107.023,213.098 107.133 C 213.177 107.634,213.043 108.000,212.779 108.000 C 212.100 108.000,210.876 109.604,211.045 110.273 C 211.200 110.892,211.144 110.933,210.160 110.933 C 208.852 110.933,208.267 111.148,208.267 111.629 C 208.267 111.889,207.919 112.000,207.100 112.000 C 205.302 112.000,204.215 112.281,204.377 112.703 C 204.487 112.990,204.093 113.067,202.496 113.067 C 200.873 113.067,200.504 112.993,200.620 112.693 C 200.807 112.204,200.036 112.008,197.902 112.004 C 196.337 112.000,196.215 111.958,196.344 111.467 C 196.468 110.993,196.352 110.933,195.308 110.933 C 194.311 110.933,194.133 110.853,194.133 110.400 C 194.133 110.039,193.956 109.867,193.584 109.867 C 193.282 109.867,193.107 109.751,193.195 109.609 C 193.282 109.467,193.109 109.198,192.810 109.011 C 192.511 108.824,192.267 108.533,192.267 108.364 C 192.267 107.999,191.521 107.668,191.176 107.882 C 190.721 108.163,190.922 109.114,191.467 109.256 C 191.760 109.333,192.000 109.549,192.000 109.736 C 192.000 109.923,192.180 110.145,192.400 110.230 C 192.620 110.314,192.800 110.554,192.800 110.763 C 192.800 110.971,193.103 111.218,193.473 111.311 C 193.844 111.404,194.384 111.717,194.673 112.007 C 194.963 112.296,195.410 112.537,195.667 112.542 C 195.923 112.546,196.366 112.726,196.651 112.942 C 196.936 113.157,197.446 113.333,197.785 113.333 C 198.124 113.333,198.850 113.573,199.397 113.867 C 200.596 114.510,203.991 114.610,205.091 114.036 C 205.472 113.837,206.227 113.592,206.769 113.490 C 207.311 113.388,208.320 112.954,209.011 112.524 C 209.701 112.094,210.554 111.617,210.905 111.464 C 211.256 111.310,211.978 110.708,212.510 110.125 C 213.043 109.543,213.614 109.067,213.780 109.067 C 213.946 109.067,214.207 108.707,214.360 108.267 C 214.513 107.827,214.744 107.467,214.872 107.467 C 215.163 107.467,216.429 105.557,216.679 104.740 C 216.782 104.406,217.001 103.965,217.166 103.759 C 217.745 103.039,217.641 93.942,217.042 92.823 C 216.762 92.301,216.533 91.741,216.533 91.579 C 216.533 91.416,216.293 91.065,216.000 90.800 C 215.707 90.535,215.467 90.168,215.467 89.985 C 215.467 89.615,213.991 88.083,213.039 87.467 C 212.700 87.247,212.121 86.737,211.752 86.333 C 211.383 85.930,210.928 85.600,210.741 85.600 C 210.553 85.600,210.400 85.433,210.400 85.230 C 210.400 85.017,209.998 84.784,209.453 84.682 C 208.932 84.584,208.439 84.331,208.357 84.119 C 208.168 83.625,207.035 83.616,206.847 84.107 M161.600 88.949 C 161.600 89.204,161.471 89.292,161.267 89.177 C 161.011 89.032,161.006 89.067,161.243 89.324 C 161.414 89.509,161.684 89.580,161.843 89.481 C 162.207 89.256,162.225 88.533,161.867 88.533 C 161.720 88.533,161.600 88.720,161.600 88.949 M27.467 90.688 C 27.161 90.902,27.224 90.926,27.733 90.787 C 28.278 90.640,28.339 90.671,28.067 90.957 C 27.600 91.447,27.651 92.445,28.153 92.637 C 28.502 92.771,28.557 92.610,28.479 91.686 C 28.380 90.501,28.112 90.237,27.467 90.688 M20.657 92.185 C 20.701 92.450,20.872 92.637,21.035 92.600 C 21.199 92.563,21.333 92.653,21.333 92.800 C 21.333 92.947,21.450 93.067,21.592 93.067 C 21.734 93.067,21.781 92.887,21.696 92.667 C 21.612 92.447,21.676 92.267,21.838 92.267 C 22.000 92.267,22.133 92.132,22.133 91.967 C 22.133 91.761,22.010 91.771,21.733 92.000 C 21.425 92.256,21.246 92.260,20.955 92.018 C 20.649 91.764,20.592 91.797,20.657 92.185 M16.679 94.153 C 16.790 94.332,18.133 94.158,18.133 93.965 C 18.133 93.906,17.782 93.885,17.352 93.918 C 16.922 93.951,16.619 94.056,16.679 94.153 M186.852 97.467 C 186.611 98.951,186.916 100.267,187.502 100.267 C 187.941 100.267,188.000 100.045,188.000 98.400 C 188.000 96.238,187.162 95.557,186.852 97.467 M243.976 99.674 C 243.800 100.205,243.745 101.142,243.845 101.896 C 243.981 102.918,243.938 103.200,243.645 103.200 C 243.233 103.200,242.906 104.935,242.973 106.771 L 243.013 107.867 243.173 106.667 C 243.297 105.741,243.440 105.475,243.800 105.504 C 244.173 105.533,244.267 105.326,244.267 104.466 C 244.267 103.756,244.425 103.272,244.733 103.038 C 245.178 102.700,245.178 102.683,244.733 102.675 C 244.074 102.663,244.047 99.553,244.702 99.074 C 245.099 98.784,245.099 98.756,244.708 98.756 C 244.455 98.756,244.154 99.133,243.976 99.674 M11.378 100.178 C 10.974 100.581,11.192 101.907,11.647 101.820 C 12.261 101.701,12.613 100.354,12.084 100.151 C 11.592 99.963,11.593 99.963,11.378 100.178 M187.768 102.267 C 187.719 103.216,188.037 103.948,188.558 104.084 C 188.983 104.195,189.067 104.071,189.067 103.333 C 189.067 102.595,188.983 102.472,188.558 102.583 C 188.216 102.672,188.007 102.555,187.922 102.225 C 187.807 101.781,187.793 101.785,187.768 102.267 M40.429 103.355 C 40.178 104.008,40.233 104.072,40.667 103.638 C 41.120 103.185,41.178 102.933,40.829 102.933 C 40.698 102.933,40.518 103.123,40.429 103.355 M189.067 105.751 C 189.067 106.381,189.236 106.870,189.533 107.095 C 190.156 107.568,191.200 107.566,191.200 107.092 C 191.200 106.848,191.013 106.765,190.667 106.856 C 190.239 106.968,190.127 106.858,190.100 106.298 C 190.040 105.032,190.004 104.941,189.533 104.851 C 189.157 104.778,189.067 104.952,189.067 105.751 M161.226 107.396 C 160.819 107.804,161.084 108.800,161.600 108.800 C 161.985 108.800,162.133 108.622,162.133 108.162 C 162.133 107.550,161.558 107.064,161.226 107.396 M162.365 113.158 C 162.528 113.355,162.604 113.596,162.533 113.693 C 162.462 113.791,162.537 113.761,162.699 113.625 C 163.026 113.353,162.794 112.800,162.352 112.800 C 162.158 112.800,162.162 112.913,162.365 113.158 M39.733 113.596 C 39.733 113.776,39.572 113.862,39.376 113.787 C 38.778 113.557,38.308 113.992,38.754 114.361 C 39.168 114.705,40.087 114.491,39.849 114.105 C 39.577 113.665,40.070 113.861,40.422 114.333 C 40.742 114.764,40.766 114.754,40.729 114.211 C 40.706 113.888,40.634 113.677,40.569 113.742 C 40.503 113.808,40.288 113.728,40.091 113.565 C 39.825 113.344,39.733 113.352,39.733 113.596 M338.682 113.839 C 338.480 114.215,338.514 114.429,338.813 114.677 C 339.157 114.963,339.205 114.892,339.150 114.172 C 339.076 113.192,339.041 113.167,338.682 113.839 M163.129 115.093 C 162.870 115.352,163.226 116.000,163.629 116.000 C 163.833 116.000,164.000 115.760,164.000 115.467 C 164.000 114.965,163.481 114.742,163.129 115.093 M16.842 119.115 C 16.375 119.950,17.642 120.651,18.347 119.947 C 18.596 119.698,18.667 119.700,18.667 119.957 C 18.667 120.217,18.744 120.216,19.027 119.951 C 19.327 119.671,19.286 119.535,18.785 119.141 C 18.026 118.544,17.168 118.532,16.842 119.115 M20.021 119.914 C 19.701 120.276,19.700 120.322,20.016 120.217 C 20.221 120.148,20.608 120.342,20.875 120.646 C 21.348 121.187,21.349 121.179,20.940 120.333 C 20.456 119.334,20.512 119.360,20.021 119.914 M34.154 120.451 C 34.121 120.949,34.617 121.125,35.131 120.796 C 35.548 120.530,35.535 120.510,35.013 120.620 C 34.690 120.688,34.369 120.606,34.301 120.438 C 34.210 120.218,34.170 120.222,34.154 120.451 M30.077 120.842 C 29.966 121.122,30.113 121.462,30.480 121.775 C 30.798 122.045,30.922 122.087,30.757 121.867 C 30.592 121.647,30.411 121.227,30.354 120.933 C 30.265 120.475,30.226 120.462,30.077 120.842 M166.156 123.542 C 166.217 123.584,166.477 123.778,166.733 123.975 C 167.133 124.281,167.200 124.270,167.200 123.899 C 167.200 123.633,166.977 123.467,166.622 123.467 C 166.304 123.467,166.094 123.501,166.156 123.542 M167.370 124.933 C 167.266 125.205,167.385 125.333,167.742 125.333 C 168.031 125.333,168.267 125.153,168.267 124.933 C 168.267 124.713,168.100 124.533,167.895 124.533 C 167.691 124.533,167.455 124.713,167.370 124.933 M170.667 131.067 C 170.667 131.287,170.847 131.467,171.067 131.467 C 171.287 131.467,171.467 131.287,171.467 131.067 C 171.467 130.847,171.287 130.667,171.067 130.667 C 170.847 130.667,170.667 130.847,170.667 131.067 M174.217 137.040 C 174.098 137.128,173.746 137.920,173.435 138.800 C 172.839 140.485,172.518 141.276,170.224 146.700 C 169.441 148.551,168.800 150.210,168.800 150.385 C 168.800 151.474,167.407 153.043,166.293 153.210 C 164.887 153.421,151.659 153.184,150.467 152.927 C 149.614 152.743,149.600 152.755,149.600 153.703 C 149.600 154.489,149.502 154.667,149.067 154.667 C 148.722 154.667,148.533 154.844,148.533 155.169 C 148.533 155.447,148.295 155.733,148.000 155.811 C 147.547 155.929,147.467 156.174,147.467 157.442 C 147.467 158.756,147.403 158.933,146.933 158.933 C 146.489 158.933,146.400 159.111,146.400 160.000 C 146.400 160.889,146.311 161.067,145.867 161.067 C 145.399 161.067,145.333 161.244,145.333 162.502 C 145.333 163.714,145.250 163.960,144.800 164.077 C 144.347 164.196,144.267 164.441,144.267 165.708 L 144.267 167.200 152.662 167.200 L 161.057 167.200 161.220 167.853 C 161.331 168.294,161.114 169.079,160.553 170.266 C 160.096 171.234,159.557 172.470,159.356 173.013 C 159.154 173.556,158.728 174.660,158.408 175.467 C 158.089 176.273,157.596 177.584,157.313 178.379 C 157.029 179.174,156.515 180.314,156.170 180.912 C 155.825 181.510,155.456 182.356,155.352 182.791 C 155.247 183.226,154.915 184.122,154.614 184.782 C 154.313 185.443,154.006 186.437,153.932 186.992 L 153.796 188.000 161.402 188.000 L 169.007 188.000 169.177 187.093 C 169.271 186.594,169.944 184.799,170.674 183.102 C 171.403 181.406,172.000 179.891,172.000 179.736 C 172.000 179.580,172.420 178.619,172.933 177.600 C 173.447 176.581,173.867 175.607,173.867 175.436 C 173.867 175.265,174.095 174.632,174.373 174.029 C 174.652 173.426,175.266 171.913,175.737 170.667 C 176.208 169.420,176.833 167.929,177.126 167.354 C 177.418 166.779,177.869 165.699,178.128 164.954 C 178.387 164.209,179.156 162.280,179.838 160.667 C 180.520 159.053,181.201 157.278,181.352 156.721 C 181.861 154.847,182.573 154.870,184.856 156.835 C 185.941 157.769,187.830 159.373,189.053 160.400 C 190.277 161.427,191.771 162.713,192.372 163.260 C 192.974 163.806,193.553 164.256,193.660 164.260 C 193.852 164.267,195.505 165.708,197.336 167.467 C 197.870 167.980,198.762 168.747,199.318 169.170 C 200.640 170.179,205.116 174.085,205.496 174.562 C 205.659 174.766,205.899 174.933,206.030 174.933 C 206.161 174.933,207.171 175.743,208.275 176.733 C 209.378 177.723,210.997 179.133,211.871 179.867 C 219.331 186.124,220.162 186.925,219.901 187.608 C 219.770 187.949,221.219 188.000,231.075 188.000 L 242.400 188.000 242.400 187.397 C 242.400 186.660,241.853 186.067,238.659 183.333 C 237.288 182.160,235.319 180.437,234.283 179.504 C 233.247 178.571,231.915 177.371,231.323 176.837 C 230.730 176.303,229.114 174.907,227.730 173.733 C 226.346 172.560,224.786 171.180,224.263 170.667 C 223.740 170.153,222.897 169.414,222.390 169.023 C 220.158 167.305,219.851 167.333,240.750 167.333 C 255.346 167.333,259.513 167.260,259.773 167.000 C 259.957 166.817,260.323 166.667,260.587 166.667 C 260.851 166.667,261.067 166.496,261.067 166.288 C 261.067 165.618,260.753 165.067,260.371 165.067 C 260.018 165.067,259.965 164.850,259.896 163.115 C 259.880 162.700,259.657 162.246,259.400 162.102 C 259.143 161.958,258.933 161.666,258.933 161.453 C 258.933 161.241,258.693 161.067,258.400 161.067 C 257.926 161.067,257.867 160.889,257.867 159.467 C 257.867 158.044,257.807 157.867,257.333 157.867 C 256.889 157.867,256.800 157.689,256.800 156.800 C 256.800 155.911,256.711 155.733,256.267 155.733 C 255.793 155.733,255.733 155.556,255.733 154.133 C 255.733 152.462,255.284 152.022,254.440 152.867 C 254.068 153.239,253.173 153.248,229.904 153.120 L 215.409 153.040 212.838 155.562 C 209.714 158.627,206.731 161.401,206.290 161.653 C 206.111 161.755,205.505 162.259,204.944 162.773 C 203.616 163.990,202.761 164.281,201.637 163.899 C 198.971 162.993,180.376 143.889,178.154 139.773 C 177.266 138.126,174.938 136.510,174.217 137.040 " stroke="none" fill="#f8d855" fill-rule="evenodd"></path><path id="path2" d="M157.333 137.582 C 157.333 138.118,156.473 138.559,156.000 138.267 C 155.087 137.703,154.694 138.397,154.747 140.480 C 154.799 142.498,154.444 143.175,153.804 142.276 C 153.696 142.124,153.606 142.270,153.604 142.600 C 153.602 142.954,153.436 143.200,153.200 143.200 C 152.980 143.200,152.782 143.350,152.759 143.533 C 152.737 143.717,152.691 143.987,152.657 144.133 C 152.623 144.280,152.581 144.836,152.564 145.369 C 152.540 146.122,152.406 146.371,151.959 146.488 C 151.413 146.631,151.393 146.742,151.553 148.816 L 151.721 150.993 151.081 150.871 C 150.610 150.781,150.405 150.886,150.305 151.268 C 150.230 151.553,150.041 151.708,149.885 151.611 C 149.713 151.505,149.600 151.689,149.600 152.073 C 149.600 152.424,149.750 152.720,149.933 152.730 C 150.117 152.741,150.913 152.881,151.703 153.041 C 153.221 153.350,165.208 153.452,166.627 153.168 C 167.419 153.010,168.800 151.252,168.800 150.402 C 168.800 150.236,169.355 148.817,170.034 147.250 C 170.712 145.682,171.539 143.680,171.872 142.800 C 172.204 141.920,172.786 140.480,173.165 139.600 C 174.355 136.836,175.045 137.067,165.600 137.067 C 157.607 137.067,157.333 137.084,157.333 137.582 M228.524 137.991 C 227.859 138.491,226.903 139.477,226.400 140.183 C 225.897 140.889,225.361 141.607,225.209 141.779 C 225.058 141.950,224.693 142.412,224.400 142.804 C 223.628 143.837,220.678 147.227,217.444 150.798 C 216.515 151.823,215.841 152.739,215.944 152.833 C 216.184 153.049,252.654 153.292,253.733 153.084 C 254.741 152.891,255.174 150.133,254.197 150.133 C 253.156 150.133,252.533 148.740,252.533 146.411 C 252.533 144.444,252.489 144.267,252.000 144.267 C 251.704 144.267,251.467 144.089,251.467 143.867 C 251.467 143.640,251.228 143.467,250.914 143.467 C 250.505 143.467,250.374 143.311,250.410 142.867 C 250.529 141.397,250.378 139.200,250.158 139.200 C 250.025 139.200,249.979 139.440,250.056 139.733 C 250.136 140.040,250.064 140.267,249.886 140.267 C 249.716 140.267,249.596 140.117,249.620 139.933 C 249.771 138.773,249.574 138.133,249.067 138.133 C 248.711 138.133,248.533 137.956,248.533 137.600 C 248.533 137.077,248.358 137.067,239.133 137.075 L 229.733 137.083 228.524 137.991 M181.867 155.733 C 181.573 156.027,181.333 156.447,181.333 156.666 C 181.333 156.886,180.719 158.536,179.968 160.333 C 179.216 162.130,178.389 164.209,178.130 164.954 C 177.870 165.699,177.418 166.779,177.126 167.354 C 176.833 167.929,176.208 169.420,175.737 170.667 C 175.266 171.913,174.652 173.426,174.373 174.029 C 174.095 174.632,173.867 175.265,173.867 175.436 C 173.867 175.607,173.447 176.581,172.933 177.600 C 172.420 178.619,172.000 179.580,172.000 179.736 C 172.000 179.891,171.403 181.406,170.674 183.102 C 169.944 184.799,169.271 186.594,169.177 187.093 L 169.007 188.000 194.355 188.000 C 208.296 188.000,219.764 187.899,219.840 187.776 C 220.269 187.083,219.145 185.968,211.871 179.867 C 210.997 179.133,209.378 177.723,208.275 176.733 C 207.171 175.743,206.161 174.933,206.030 174.933 C 205.899 174.933,205.659 174.766,205.496 174.562 C 205.116 174.085,200.640 170.179,199.318 169.170 C 198.762 168.747,197.870 167.980,197.336 167.467 C 195.505 165.708,193.852 164.267,193.660 164.260 C 193.553 164.256,192.974 163.806,192.372 163.260 C 191.771 162.713,190.277 161.427,189.053 160.400 C 187.830 159.373,185.957 157.783,184.892 156.867 C 182.743 155.017,182.627 154.973,181.867 155.733 " stroke="none" fill="#51e167" fill-rule="evenodd"></path><path id="path3" d="M200.533 56.267 C 200.533 56.736,200.356 56.800,199.051 56.800 C 197.936 56.800,197.618 56.717,197.769 56.467 C 197.927 56.203,197.885 56.201,197.568 56.458 C 197.317 56.661,195.984 56.811,194.008 56.858 C 191.152 56.926,190.897 56.972,191.343 57.333 C 191.626 57.563,191.751 57.592,191.635 57.400 C 191.352 56.927,191.601 56.986,192.020 57.491 C 192.333 57.867,192.254 57.909,191.319 57.865 C 189.484 57.778,188.892 57.849,189.301 58.108 C 189.503 58.236,189.586 58.474,189.485 58.637 C 189.237 59.038,188.343 59.013,188.177 58.600 C 188.069 58.333,188.038 58.333,188.021 58.600 C 188.007 58.819,187.545 58.933,186.669 58.933 C 185.627 58.933,185.266 59.049,185.005 59.467 C 184.822 59.760,184.535 60.000,184.367 60.000 C 184.199 60.000,183.999 60.240,183.923 60.533 C 183.807 60.975,183.559 61.067,182.484 61.067 C 181.515 61.067,181.069 61.202,180.729 61.600 C 180.477 61.893,180.035 62.133,179.745 62.133 C 179.131 62.133,178.597 62.975,178.829 63.578 C 179.009 64.048,178.187 64.503,177.906 64.089 C 177.728 63.826,176.484 64.313,176.517 64.633 C 176.571 65.172,176.512 65.401,176.358 65.247 C 176.028 64.917,175.467 65.664,175.467 66.433 C 175.467 67.064,175.349 67.206,174.800 67.233 C 173.577 67.294,173.466 67.343,173.504 67.806 C 173.530 68.134,173.339 68.268,172.837 68.271 C 172.114 68.275,171.403 68.594,171.444 68.896 C 171.567 69.816,171.411 70.400,171.042 70.400 C 170.808 70.400,170.554 70.640,170.477 70.933 C 170.400 71.229,170.114 71.467,169.836 71.467 C 169.521 71.467,169.333 71.655,169.333 71.969 C 169.333 72.247,169.095 72.533,168.800 72.611 C 168.417 72.711,168.267 72.974,168.267 73.544 C 168.267 74.114,168.116 74.377,167.733 74.477 C 167.414 74.561,167.200 74.841,167.200 75.175 C 167.200 75.486,167.028 75.733,166.812 75.733 C 166.582 75.733,166.355 76.103,166.254 76.642 C 166.145 77.221,165.899 77.599,165.575 77.684 C 165.284 77.760,165.067 78.050,165.067 78.362 C 165.067 78.662,164.866 79.019,164.620 79.157 C 164.289 79.342,164.154 79.847,164.100 81.103 C 164.034 82.620,163.969 82.798,163.480 82.779 C 163.079 82.763,162.933 82.924,162.933 83.379 C 162.933 83.730,162.773 84.000,162.565 84.000 C 162.300 84.000,162.143 84.569,162.007 86.018 C 161.884 87.333,161.691 88.084,161.454 88.175 C 161.050 88.330,160.858 107.502,161.261 107.437 C 161.930 107.328,162.017 107.629,162.009 110.010 C 162.002 111.989,162.089 112.608,162.400 112.801 C 162.620 112.938,162.812 113.264,162.827 113.525 C 162.918 115.113,162.933 115.150,163.438 115.018 C 163.891 114.900,163.944 115.055,163.965 116.549 C 163.993 118.504,164.173 119.200,164.651 119.200 C 164.850 119.200,165.071 119.654,165.169 120.267 C 165.279 120.957,165.480 121.333,165.736 121.333 C 166.022 121.333,166.133 121.633,166.133 122.400 C 166.133 123.289,166.222 123.467,166.667 123.467 C 166.981 123.467,167.200 123.644,167.200 123.899 C 167.200 124.254,167.128 124.272,166.800 124.000 C 166.580 123.817,166.400 123.776,166.400 123.908 C 166.400 124.040,166.640 124.354,166.933 124.605 C 167.227 124.856,167.467 124.943,167.467 124.797 C 167.467 124.652,167.647 124.533,167.867 124.533 C 168.425 124.533,168.369 125.267,167.800 125.416 C 167.356 125.532,167.356 125.540,167.800 125.569 C 168.129 125.591,168.267 125.826,168.267 126.367 C 168.267 126.830,168.476 127.280,168.793 127.501 C 169.159 127.755,169.338 128.221,169.380 129.031 C 169.421 129.816,169.598 130.294,169.921 130.496 C 170.184 130.660,170.400 131.006,170.400 131.264 C 170.400 131.556,170.602 131.733,170.933 131.733 C 171.307 131.733,171.468 131.912,171.471 132.333 C 171.476 133.177,171.760 133.530,172.603 133.741 C 173.005 133.842,173.352 134.121,173.374 134.362 C 173.396 134.603,173.442 134.920,173.477 135.067 C 173.511 135.213,173.552 135.483,173.569 135.667 C 173.586 135.850,173.766 136.000,173.969 136.000 C 174.172 136.000,174.401 136.240,174.477 136.533 C 174.558 136.844,174.841 137.067,175.153 137.067 C 175.759 137.067,177.580 138.709,178.154 139.773 C 180.376 143.889,198.971 162.993,201.637 163.899 C 202.761 164.281,203.616 163.990,204.944 162.773 C 205.505 162.259,206.111 161.755,206.290 161.653 C 207.650 160.877,215.581 152.946,215.096 152.848 C 214.619 152.751,211.200 155.687,211.200 156.193 C 211.200 156.373,210.870 156.695,210.467 156.909 C 210.063 157.124,208.814 158.177,207.691 159.249 C 206.567 160.322,205.367 161.408,205.024 161.662 C 204.681 161.917,204.081 162.367,203.691 162.662 C 202.955 163.221,201.333 163.403,201.333 162.928 C 201.333 162.778,201.063 162.530,200.733 162.376 C 199.170 161.649,199.092 160.944,200.434 159.686 C 205.605 154.842,213.097 147.089,214.669 144.957 C 215.181 144.262,216.349 142.832,217.265 141.780 C 218.180 140.728,218.930 139.784,218.931 139.683 C 218.932 139.582,219.653 138.544,220.533 137.376 C 221.413 136.208,222.133 135.174,222.133 135.077 C 222.133 134.981,222.501 134.445,222.950 133.886 C 223.399 133.327,223.969 132.498,224.217 132.043 C 224.464 131.588,225.455 129.863,226.419 128.208 C 228.428 124.759,230.777 120.033,231.319 118.350 C 231.522 117.718,232.008 116.360,232.398 115.333 C 232.788 114.307,233.168 113.167,233.243 112.800 C 233.318 112.433,233.551 111.585,233.762 110.915 C 234.158 109.652,234.725 106.826,235.230 103.600 C 236.071 98.219,234.868 88.421,232.807 83.867 C 232.674 83.573,232.128 82.313,231.594 81.067 C 231.060 79.820,230.375 78.380,230.071 77.867 C 229.250 76.481,227.657 74.019,227.483 73.867 C 227.399 73.793,226.507 72.713,225.501 71.467 C 224.495 70.220,223.326 68.978,222.903 68.707 C 222.480 68.436,222.133 68.111,222.133 67.984 C 222.133 67.328,214.749 62.106,212.818 61.397 C 212.314 61.212,211.714 60.905,211.484 60.714 C 211.043 60.347,209.460 59.661,208.150 59.268 C 207.719 59.139,207.317 58.886,207.257 58.706 C 207.128 58.316,211.385 58.467,212.185 58.881 C 212.450 59.018,213.145 59.216,213.730 59.322 C 214.315 59.428,215.642 59.912,216.679 60.397 C 217.716 60.883,218.998 61.400,219.528 61.546 C 220.058 61.692,221.032 62.184,221.694 62.639 C 222.355 63.094,223.001 63.467,223.130 63.467 C 223.258 63.467,223.770 63.767,224.267 64.133 C 224.764 64.500,225.447 64.800,225.785 64.800 C 226.123 64.800,226.400 64.920,226.400 65.067 C 226.400 65.213,226.687 65.333,227.037 65.333 C 227.552 65.333,227.707 65.509,227.846 66.251 C 227.976 66.945,228.337 67.402,229.332 68.132 C 230.648 69.098,232.267 70.907,232.267 71.412 C 232.267 71.560,232.689 71.930,233.204 72.234 C 233.720 72.538,234.257 73.090,234.398 73.460 C 234.538 73.830,234.750 74.133,234.868 74.133 C 234.986 74.133,235.228 74.463,235.405 74.867 C 236.076 76.398,237.779 79.186,238.241 79.511 C 238.380 79.609,238.534 79.969,238.582 80.311 C 238.631 80.653,238.867 81.353,239.108 81.867 C 239.348 82.380,239.629 82.980,239.733 83.200 C 240.274 84.350,241.067 83.807,241.067 82.285 C 241.067 81.468,240.977 80.814,240.867 80.832 C 240.203 80.936,240.000 80.715,240.000 79.885 C 240.000 79.203,239.864 78.926,239.467 78.800 C 239.072 78.675,238.933 78.397,238.933 77.729 C 238.933 77.167,238.767 76.733,238.493 76.580 C 238.251 76.444,238.020 76.033,237.981 75.666 C 237.941 75.289,237.332 74.412,236.582 73.650 C 235.852 72.908,235.322 72.233,235.405 72.150 C 235.488 72.068,235.416 72.000,235.244 72.000 C 235.073 72.000,234.933 71.640,234.933 71.200 C 234.933 70.608,234.812 70.405,234.467 70.421 C 234.188 70.434,234.134 70.496,234.333 70.577 C 234.802 70.766,234.750 71.467,234.267 71.467 C 233.978 71.467,233.867 71.170,233.867 70.400 C 233.867 69.533,233.773 69.333,233.364 69.333 C 233.086 69.333,232.800 69.095,232.723 68.800 C 232.646 68.507,232.392 68.267,232.158 68.267 C 231.925 68.267,231.733 68.095,231.733 67.885 C 231.733 67.675,231.493 67.426,231.200 67.333 C 230.907 67.240,230.667 67.000,230.667 66.800 C 230.667 66.600,230.427 66.360,230.133 66.267 C 229.840 66.174,229.600 65.930,229.600 65.726 C 229.600 65.517,229.128 65.227,228.525 65.065 C 227.915 64.900,227.523 64.658,227.619 64.503 C 227.715 64.348,227.580 64.267,227.304 64.315 C 226.993 64.370,226.694 64.139,226.463 63.667 C 226.266 63.263,225.931 62.933,225.719 62.933 C 225.507 62.933,225.333 62.753,225.333 62.533 C 225.333 62.192,224.678 61.988,223.941 62.099 C 223.836 62.115,223.621 61.889,223.465 61.597 C 223.269 61.230,222.907 61.067,222.288 61.067 C 221.620 61.067,221.361 60.933,221.256 60.533 C 221.149 60.125,220.892 60.000,220.158 60.000 C 219.378 60.000,219.200 59.901,219.200 59.467 C 219.200 58.999,219.022 58.933,217.764 58.933 C 216.553 58.933,216.307 58.850,216.189 58.400 C 216.079 57.976,215.826 57.867,214.958 57.867 C 214.044 57.867,213.867 57.780,213.867 57.333 C 213.867 56.821,213.689 56.800,209.333 56.800 C 204.978 56.800,204.800 56.779,204.800 56.267 C 204.800 55.778,204.622 55.733,202.667 55.733 C 200.711 55.733,200.533 55.778,200.533 56.267 M206.376 57.827 C 206.656 57.923,206.622 58.002,206.243 58.134 C 205.527 58.384,203.435 58.133,203.629 57.820 C 203.785 57.568,205.637 57.572,206.376 57.827 M205.267 82.635 C 205.450 82.652,205.600 82.907,205.600 83.200 C 205.600 83.661,205.778 83.733,206.905 83.733 C 207.796 83.733,208.256 83.855,208.357 84.119 C 208.439 84.331,208.932 84.584,209.453 84.682 C 209.998 84.784,210.400 85.017,210.400 85.230 C 210.400 85.433,210.553 85.600,210.741 85.600 C 210.928 85.600,211.383 85.930,211.752 86.333 C 212.121 86.737,212.700 87.247,213.039 87.467 C 213.991 88.083,215.467 89.615,215.467 89.985 C 215.467 90.168,215.707 90.535,216.000 90.800 C 216.293 91.065,216.533 91.416,216.533 91.579 C 216.533 91.741,216.762 92.301,217.042 92.823 C 217.746 94.137,217.701 102.847,216.983 104.133 C 216.737 104.573,216.536 105.013,216.535 105.109 C 216.532 105.444,215.105 107.467,214.872 107.467 C 214.744 107.467,214.513 107.827,214.360 108.267 C 214.207 108.707,213.946 109.067,213.780 109.067 C 213.614 109.067,213.043 109.543,212.510 110.125 C 211.978 110.708,211.256 111.310,210.905 111.464 C 210.554 111.617,209.701 112.094,209.011 112.524 C 208.320 112.954,207.311 113.388,206.769 113.490 C 206.227 113.592,205.472 113.837,205.091 114.036 C 203.991 114.610,200.596 114.510,199.397 113.867 C 198.850 113.573,198.124 113.333,197.785 113.333 C 197.446 113.333,196.936 113.157,196.651 112.942 C 196.366 112.726,195.923 112.546,195.667 112.542 C 195.410 112.537,194.963 112.296,194.673 112.007 C 194.384 111.717,193.844 111.404,193.473 111.311 C 193.103 111.218,192.800 110.971,192.800 110.763 C 192.800 110.554,192.620 110.314,192.400 110.230 C 192.180 110.145,192.000 109.923,192.000 109.736 C 192.000 109.549,191.744 109.328,191.430 109.247 C 190.955 109.122,190.887 108.963,191.024 108.282 C 191.166 107.570,191.112 107.466,190.593 107.458 C 189.524 107.443,189.067 106.850,189.067 105.479 C 189.067 104.460,188.968 104.191,188.556 104.083 C 187.907 103.914,187.691 103.052,187.904 101.493 C 188.056 100.388,188.020 100.267,187.538 100.267 C 187.133 100.267,186.966 100.039,186.852 99.333 C 186.604 97.809,186.914 96.533,187.532 96.533 C 188.016 96.533,188.046 96.412,187.883 95.104 C 187.648 93.220,187.905 92.180,188.563 92.352 C 188.972 92.459,189.012 92.396,188.795 91.991 C 188.491 91.423,188.797 90.422,189.439 89.890 C 189.674 89.694,189.867 89.369,189.867 89.167 C 189.867 88.965,190.093 88.800,190.369 88.800 C 190.647 88.800,190.933 88.562,191.011 88.267 C 191.087 87.973,191.341 87.733,191.575 87.733 C 191.809 87.733,192.000 87.566,192.000 87.362 C 192.000 87.158,192.180 86.921,192.400 86.837 C 192.620 86.752,192.800 86.502,192.800 86.280 C 192.800 86.058,193.091 85.804,193.447 85.714 C 193.803 85.625,194.160 85.383,194.239 85.176 C 194.318 84.969,194.677 84.800,195.036 84.800 C 195.953 84.800,196.533 84.537,196.533 84.123 C 196.533 83.654,197.386 83.403,198.244 83.618 C 198.776 83.752,198.933 83.691,198.933 83.354 C 198.933 82.615,201.737 82.296,205.267 82.635 M240.630 84.401 C 240.453 84.860,241.187 86.854,241.773 87.507 C 242.093 87.863,242.113 88.150,241.881 89.014 C 241.525 90.336,241.879 91.467,242.649 91.467 C 243.144 91.467,243.175 91.297,243.131 88.800 C 243.088 86.321,242.993 85.998,242.333 86.102 C 242.223 86.119,242.133 85.653,242.133 85.067 C 242.133 83.937,241.000 83.435,240.630 84.401 M162.086 88.978 C 162.039 89.222,161.859 89.469,161.688 89.526 C 161.489 89.593,161.427 89.431,161.519 89.082 C 161.689 88.430,162.211 88.334,162.086 88.978 M243.016 92.600 C 242.897 92.783,242.783 94.253,242.763 95.867 C 242.733 98.289,242.466 102.275,242.072 106.178 C 242.032 106.569,241.910 106.979,241.800 107.089 C 241.509 107.380,241.555 108.474,241.867 108.667 C 242.046 108.778,242.046 108.998,241.867 109.332 C 241.720 109.607,241.600 110.096,241.600 110.420 C 241.600 110.743,241.402 111.153,241.159 111.330 C 240.371 111.907,240.507 114.000,241.333 114.000 C 241.926 114.000,242.015 113.867,242.133 112.800 C 242.207 112.140,242.387 111.621,242.533 111.648 C 243.146 111.757,243.316 109.901,242.773 109.022 C 242.697 108.900,242.773 108.800,242.941 108.800 C 243.151 108.800,243.189 108.458,243.062 107.706 C 242.804 106.176,243.150 103.200,243.587 103.200 C 243.829 103.200,243.938 102.705,243.955 101.533 C 243.968 100.617,244.038 98.427,244.111 96.667 C 244.281 92.559,243.917 91.208,243.016 92.600 M239.751 114.633 C 239.595 114.926,239.467 115.315,239.467 115.498 C 239.467 115.682,239.217 116.347,238.913 116.976 C 238.214 118.418,238.317 119.041,239.269 119.151 C 239.857 119.219,240.000 119.128,240.000 118.684 C 240.000 118.307,240.172 118.133,240.545 118.133 C 241.051 118.133,241.084 117.995,241.012 116.203 C 240.929 114.155,240.376 113.466,239.751 114.633 M237.304 120.733 C 237.005 121.430,236.696 122.324,236.616 122.720 C 236.537 123.116,236.246 123.644,235.969 123.894 C 235.693 124.145,235.467 124.616,235.467 124.942 C 235.467 125.268,235.221 125.700,234.921 125.901 C 234.621 126.102,234.350 126.601,234.320 127.011 C 234.289 127.420,234.104 127.854,233.908 127.975 C 233.539 128.203,233.037 128.985,232.527 130.130 C 232.365 130.494,232.000 131.009,231.716 131.273 C 231.432 131.538,231.200 132.021,231.200 132.346 C 231.200 132.672,230.960 133.088,230.667 133.271 C 230.373 133.455,230.133 133.820,230.133 134.083 C 230.133 134.347,229.713 134.969,229.200 135.467 C 228.531 136.115,228.268 136.602,228.271 137.186 C 228.273 137.638,228.362 137.863,228.471 137.691 C 228.579 137.521,229.118 137.298,229.667 137.195 C 230.342 137.068,230.667 136.865,230.667 136.568 C 230.667 136.326,230.899 135.983,231.182 135.806 C 231.482 135.619,231.734 135.117,231.782 134.609 C 231.830 134.111,232.003 133.760,232.184 133.795 C 232.358 133.828,232.574 133.624,232.664 133.342 C 232.754 133.059,233.036 132.761,233.290 132.680 C 233.577 132.589,233.777 132.219,233.816 131.710 C 233.858 131.158,234.200 130.583,234.851 129.969 C 235.767 129.106,235.924 128.729,235.978 127.267 C 235.991 126.921,236.170 126.667,236.400 126.667 C 236.620 126.667,236.800 126.553,236.800 126.414 C 236.800 126.275,237.096 125.842,237.458 125.451 C 238.020 124.845,238.092 124.572,237.955 123.571 C 237.808 122.503,237.844 122.400,238.364 122.400 C 238.876 122.400,238.933 122.253,238.933 120.933 C 238.933 118.928,238.122 118.828,237.304 120.733 M171.467 131.067 C 171.467 131.287,171.287 131.467,171.067 131.467 C 170.847 131.467,170.667 131.287,170.667 131.067 C 170.667 130.847,170.847 130.667,171.067 130.667 C 171.287 130.667,171.467 130.847,171.467 131.067 " stroke="none" fill="#fb4b4c" fill-rule="evenodd"></path><path id="path4" d="M203.629 57.820 C 203.435 58.133,205.527 58.384,206.243 58.134 C 206.622 58.002,206.656 57.923,206.376 57.827 C 205.637 57.572,203.785 57.568,203.629 57.820 M207.257 58.706 C 207.317 58.886,207.719 59.139,208.150 59.268 C 209.460 59.661,211.043 60.347,211.484 60.714 C 211.714 60.905,212.314 61.212,212.818 61.397 C 214.749 62.106,222.133 67.328,222.133 67.984 C 222.133 68.111,222.480 68.436,222.903 68.707 C 223.326 68.978,224.495 70.220,225.501 71.467 C 226.507 72.713,227.399 73.793,227.483 73.867 C 227.657 74.019,229.250 76.481,230.071 77.867 C 230.375 78.380,231.060 79.820,231.594 81.067 C 232.128 82.313,232.674 83.573,232.807 83.867 C 234.868 88.421,236.071 98.219,235.230 103.600 C 234.725 106.826,234.158 109.652,233.762 110.915 C 233.551 111.585,233.318 112.433,233.243 112.800 C 233.168 113.167,232.788 114.307,232.398 115.333 C 232.008 116.360,231.522 117.718,231.319 118.350 C 230.777 120.033,228.428 124.759,226.419 128.208 C 225.455 129.863,224.464 131.588,224.217 132.043 C 223.969 132.498,223.399 133.327,222.950 133.886 C 222.501 134.445,222.133 134.981,222.133 135.077 C 222.133 135.174,221.413 136.208,220.533 137.376 C 219.653 138.544,218.932 139.582,218.931 139.683 C 218.930 139.784,218.180 140.728,217.265 141.780 C 216.349 142.832,215.181 144.262,214.669 144.957 C 213.097 147.089,205.605 154.842,200.434 159.686 C 199.092 160.944,199.170 161.649,200.733 162.376 C 201.063 162.530,201.333 162.778,201.333 162.928 C 201.333 163.403,202.955 163.221,203.691 162.662 C 204.081 162.367,204.681 161.917,205.024 161.662 C 205.367 161.408,206.567 160.322,207.691 159.249 C 208.814 158.177,210.063 157.124,210.467 156.909 C 210.870 156.695,211.200 156.373,211.200 156.193 C 211.200 155.696,214.559 152.800,215.136 152.800 C 215.607 152.800,216.873 151.513,220.758 147.089 C 223.147 144.367,223.844 143.548,224.400 142.804 C 224.693 142.412,225.053 141.950,225.200 141.779 C 225.347 141.607,225.981 140.777,226.609 139.933 C 227.237 139.090,227.867 138.400,228.009 138.400 C 228.151 138.400,228.267 137.944,228.267 137.386 C 228.267 136.576,228.455 136.188,229.200 135.467 C 229.713 134.969,230.133 134.347,230.133 134.083 C 230.133 133.820,230.373 133.455,230.667 133.271 C 230.960 133.088,231.200 132.672,231.200 132.346 C 231.200 132.021,231.432 131.538,231.716 131.273 C 232.000 131.009,232.365 130.494,232.527 130.130 C 233.037 128.985,233.539 128.203,233.908 127.975 C 234.104 127.854,234.289 127.420,234.320 127.011 C 234.350 126.601,234.621 126.102,234.921 125.901 C 235.221 125.700,235.467 125.268,235.467 124.942 C 235.467 124.616,235.693 124.145,235.969 123.894 C 236.246 123.644,236.537 123.116,236.616 122.720 C 236.955 121.030,237.834 119.467,238.444 119.467 C 238.908 119.467,238.969 119.396,238.720 119.147 C 238.280 118.706,238.318 118.217,238.890 116.951 C 239.160 116.355,239.495 115.507,239.635 115.067 C 239.815 114.501,240.054 114.272,240.450 114.285 C 240.907 114.300,240.959 114.221,240.734 113.861 C 240.375 113.286,240.712 111.484,241.215 111.291 C 241.427 111.209,241.600 110.848,241.600 110.487 C 241.600 110.127,241.720 109.607,241.867 109.332 C 242.046 108.998,242.046 108.778,241.867 108.667 C 241.555 108.474,241.509 107.380,241.800 107.089 C 241.910 106.979,242.032 106.569,242.072 106.178 C 242.467 102.256,242.733 98.282,242.763 95.824 C 242.783 94.187,242.890 92.757,243.000 92.646 C 243.419 92.224,243.201 91.467,242.660 91.467 C 241.878 91.467,241.522 90.346,241.881 89.014 C 242.113 88.150,242.093 87.863,241.773 87.507 C 241.011 86.657,240.419 84.777,240.749 84.250 C 241.000 83.847,240.957 83.754,240.485 83.684 C 240.175 83.638,239.836 83.420,239.733 83.200 C 239.629 82.980,239.348 82.380,239.108 81.867 C 238.867 81.353,238.631 80.653,238.582 80.311 C 238.534 79.969,238.380 79.609,238.241 79.511 C 237.779 79.186,236.076 76.398,235.405 74.867 C 235.228 74.463,234.986 74.133,234.868 74.133 C 234.750 74.133,234.538 73.830,234.398 73.460 C 234.257 73.090,233.720 72.538,233.204 72.234 C 232.689 71.930,232.267 71.560,232.267 71.412 C 232.267 70.907,230.648 69.098,229.332 68.132 C 228.337 67.402,227.976 66.945,227.846 66.251 C 227.707 65.509,227.552 65.333,227.037 65.333 C 226.687 65.333,226.400 65.213,226.400 65.067 C 226.400 64.920,226.123 64.800,225.785 64.800 C 225.447 64.800,224.764 64.500,224.267 64.133 C 223.770 63.767,223.258 63.467,223.130 63.467 C 223.001 63.467,222.355 63.094,221.694 62.639 C 221.032 62.184,220.058 61.692,219.528 61.546 C 218.998 61.400,217.716 60.883,216.679 60.397 C 215.642 59.912,214.315 59.428,213.730 59.322 C 213.145 59.216,212.450 59.018,212.185 58.881 C 211.385 58.467,207.128 58.316,207.257 58.706 M226.431 63.480 C 226.388 64.058,226.919 64.522,227.410 64.334 C 227.661 64.237,227.753 64.286,227.645 64.460 C 227.470 64.743,228.228 65.194,228.471 64.951 C 228.822 64.601,228.205 64.000,227.495 64.000 C 226.968 64.000,226.665 63.845,226.584 63.533 C 226.490 63.175,226.455 63.163,226.431 63.480 M234.933 71.733 C 234.933 71.880,235.060 72.000,235.216 72.000 C 235.371 72.000,235.432 72.107,235.351 72.239 C 235.269 72.370,235.382 72.546,235.602 72.630 C 236.027 72.794,236.099 72.568,235.838 71.888 C 235.661 71.428,234.933 71.303,234.933 71.733 M164.106 79.346 C 164.013 79.719,164.010 80.099,164.101 80.190 C 164.192 80.281,164.267 80.139,164.267 79.874 C 164.267 79.609,164.477 79.233,164.733 79.038 C 165.173 78.704,165.174 78.683,164.738 78.675 C 164.462 78.670,164.208 78.940,164.106 79.346 M237.929 123.200 C 237.929 123.713,237.983 123.923,238.050 123.667 C 238.118 123.410,238.118 122.990,238.050 122.733 C 237.983 122.477,237.929 122.687,237.929 123.200 " stroke="none" fill="#e4343c" fill-rule="evenodd"></path></g></svg>